<?xml version="1.0" encoding="UTF-8" ?>
<svg xmlns="http://www.w3.org/2000/svg" xmlns:xlink="http://www.w3.org/1999/xlink" height="600" width="520">
  <g id="background">
    <polygon points="260,600 0.2,450 0.2,150 260,0 519.8,150 519.8,450" style="fill:#C04384;" />
    <polygon points="260,585 13.2,442.5 13.2,157.5 260,15 506.8,157.5 506.8 442.5" style="fill:white;" />
    <polygon points="260,30 26.2,165 26.2,300 493.8,300 493.8,165" style="fill:#C04384;" />
  </g>
  <g id="package: BMK">
    <path style="fill:#3C3D00"  d="M 117.94 381.39 L 117.94 415.03 L 124.05 415.03 L 127.79 415.02 L 131.30 414.93 L 134.58 414.77 L 137.62 414.56 L 140.45 414.27 L 143.05 413.92 L 145.40 413.50 L 147.54 413.01 L 149.46 412.46 L 151.13 411.84 L 152.62 411.11 L 153.96 410.26 L 155.14 409.26 L 156.16 408.13 L 157.01 406.87 L 157.73 405.47 L 158.27 403.94 L 158.67 402.27 L 158.90 400.46 L 158.97 398.53 L 158.90 396.58 L 158.67 394.77 L 158.30 393.10 L 157.77 391.55 L 157.09 390.14 L 156.25 388.85 L 155.26 387.69 L 154.14 386.67 L 152.85 385.79 L 151.40 385.03 L 149.81 384.33 L 148.03 383.71 L 146.08 383.16 L 143.96 382.69 L 141.65 382.30 L 139.17 381.96 L 136.53 381.70 L 133.70 381.52 L 130.69 381.42 L 127.51 381.39 M 117.94 331.24 Z L 117.94 360.87 L 119.31 360.87 L 122.82 360.84 L 126.09 360.78 L 129.09 360.67 L 131.88 360.54 L 134.40 360.34 L 136.69 360.11 L 138.73 359.84 L 140.52 359.52 L 142.07 359.17 L 143.38 358.77 L 144.91 358.12 L 146.27 357.33 L 147.48 356.40 L 148.52 355.32 L 149.40 354.12 L 150.13 352.77 L 150.69 351.30 L 151.08 349.67 L 151.33 347.91 L 151.40 346.01 L 151.33 344.11 L 151.08 342.35 L 150.67 340.72 L 150.10 339.23 L 149.35 337.89 L 148.46 336.68 L 147.39 335.61 L 146.16 334.69 L 144.76 333.90 L 143.20 333.24 L 141.91 332.86 L 140.37 332.51 L 138.62 332.21 L 136.63 331.95 L 134.43 331.74 L 131.98 331.56 L 129.32 331.42 L 126.42 331.31 L 123.30 331.25 L 119.95 331.24 M 96.60 433.18 Z L 96.60 313.00 L 127.97 313.00 L 132.21 313.06 L 136.22 313.23 L 140.01 313.53 L 143.58 313.94 L 146.92 314.47 L 150.05 315.13 L 152.95 315.90 L 155.64 316.78 L 158.11 317.80 L 160.34 318.93 L 162.89 320.55 L 165.17 322.39 L 167.18 324.44 L 168.93 326.69 L 170.40 329.14 L 171.60 331.80 L 172.54 334.66 L 173.21 337.71 L 173.62 340.98 L 173.74 344.46 L 173.64 347.92 L 173.32 351.19 L 172.79 354.24 L 172.03 357.10 L 171.05 359.75 L 169.88 362.19 L 168.47 364.43 L 166.86 366.45 L 165.04 368.27 L 162.98 369.90 L 164.84 370.69 L 166.59 371.55 L 168.23 372.47 L 169.76 373.44 L 171.19 374.47 L 172.53 375.57 L 173.76 376.74 L 174.90 377.95 L 175.92 379.23 L 176.84 380.57 L 177.68 381.98 L 178.42 383.47 L 179.09 385.05 L 179.67 386.70 L 180.16 388.45 L 180.55 390.28 L 180.87 392.19 L 181.11 394.18 L 181.25 396.26 L 181.31 398.44 L 181.22 401.40 L 180.98 404.21 L 180.57 406.87 L 180.00 409.38 L 179.29 411.72 L 178.42 413.92 L 177.39 415.96 L 176.20 417.84 L 174.87 419.56 L 173.38 421.14 L 171.77 422.58 L 170.05 423.92 L 168.24 425.17 L 166.33 426.31 L 164.31 427.34 L 162.21 428.27 L 159.99 429.10 L 157.68 429.83 L 155.28 430.46 L 152.77 430.99 L 150.16 431.40 L 147.42 431.78 L 144.57 432.10 L 141.59 432.39 L 138.49 432.63 L 135.26 432.83 L 131.91 432.98 L 128.44 433.09 L 124.85 433.15 L 121.13 433.18 M 300.39 433.18 Z L 279.06 433.18 L 279.06 358.68 L 259.64 395.15 L 239.39 395.15 L 219.97 358.68 L 219.97 433.18 L 198.64 433.18 L 198.64 313.00 L 219.97 313.00 L 249.51 368.71 L 279.06 313.00 L 300.39 313.00 M 345.44 433.18 Z L 324.10 433.18 L 324.10 313.00 L 345.44 313.00 L 345.44 358.04 L 383.19 313.00 L 410.90 313.00 L 367.96 364.24 L 368.58 365.78 L 369.34 367.40 L 370.25 369.11 L 371.30 370.90 L 372.50 372.77 L 373.84 374.73 L 375.33 376.77 L 376.95 378.89 L 378.72 381.10 L 380.63 383.39 L 382.65 385.70 L 384.71 387.98 L 386.80 390.21 L 388.94 392.40 L 391.12 394.56 L 393.35 396.67 L 395.63 398.74 L 397.94 400.78 L 400.30 402.77 L 402.70 404.73 L 405.08 406.58 L 407.39 408.28 L 409.63 409.82 L 411.79 411.20 L 413.85 412.43 L 415.84 413.50 L 417.76 414.41 L 419.60 415.17 L 421.36 415.78 L 423.03 416.22 L 423.40 417.13 L 412.36 435.00 L 410.78 434.91 L 409.11 434.64 L 407.35 434.19 L 405.48 433.57 L 403.52 432.77 L 401.47 431.78 L 399.32 430.62 L 397.08 429.27 L 394.73 427.77 L 392.30 426.06 L 389.84 424.24 L 387.38 422.33 L 384.93 420.34 L 382.49 418.25 L 380.07 416.10 L 377.65 413.86 L 375.27 411.54 L 372.88 409.14 L 370.51 406.66 L 368.14 404.09 L 365.89 401.54 L 363.81 399.06 L 361.89 396.66 L 360.13 394.33 L 358.55 392.07 L 357.12 389.90 L 355.88 387.80 L 354.78 385.76 L 353.86 383.80 L 353.10 381.93 L 345.44 391.14"/>
  </g>
<svg viewBox="0 0 512 512" x="150.0" y="-100.0" width="40.0%">
<style type="text/css"><![CDATA[	.st0{fill:#ffffff;}]]></style><g>	<rect y="477.031" class="st0" width="512" height="8"/>	<path class="st0" d="M112.688,387.016v60.75h78.625v-79.844C165.797,375.672,139.578,382.141,112.688,387.016z"/>	<path class="st0" d="M8.688,397.906v49.859h78.625v-56.734C61.594,394.719,35.359,397.031,8.688,397.906z"/>	<path class="st0" d="M216.438,359.719v88.047h79.125V326.5C270.234,339.109,243.813,350.219,216.438,359.719z"/>	<path class="st0" d="M320.313,313.5v134.266h79.375V261.547C374.875,280.609,348.344,297.984,320.313,313.5z"/>	<path class="st0" d="M424.25,241.672v206.094h79.5V158.953C480.391,188.781,453.719,216.469,424.25,241.672z"/>	<path class="st0" d="M413.078,57.688l27.656,23.172C352.953,190.391,185.391,329.125,0,349.766v22.141		c183.875-6.5,381.109-132.453,483.547-255.172L512,140.563V26.969L413.078,57.688z"/></g>
</svg>
</svg>
